PathFileType	4	(X/Y/Z)	C:/Users/beibeiliu/ov580/test_trc/capture2\sequence.6_training_dense_left.trc
DataRate	CameraRate	NumFrames	NumMarkers	Units	OrigDataRate	OrigDataStartFrame	OrigNumFrames
120	120	20	19	mm	120	309	353
Frame#	Time	ThumbCMC			ThumbMCP			ThumbIP			ThumbTip			IndexMCP			IndexPIP			IndexTip			MiddleMCP			MiddlePIP			MiddleTip			RingMCP			RingPIP			RingTip			PinkyMCP			PinkyPIP			PinkyTip			BackHand1			BackHand2			BackHand3	
		X0	Y0	Z0	X1	Y1	Z1	X2	Y2	Z2	X3	Y3	Z3	X4	Y4	Z4	X5	Y5	Z5	X6	Y6	Z6	X7	Y7	Z7	X8	Y8	Z8	X9	Y9	Z9	X10	Y10	Z10	X11	Y11	Z11	X12	Y12	Z12	X13	Y13	Z13	X14	Y14	Z14	X15	Y15	Z15	X16	Y16	Z16	X17	Y17	Z17	X18	Y18	Z18	
308	2.56667	-143.684	92.7033	-41.7197	-117.779	88.953	-63.3128	-108.184	83.3828	-91.5948	-114.992	63.9541	-110.468	-172.733	99.0634	-106.954	-170.992	101.823	-134.727	-167.948	95.5311	-158.382	-157.356	69.0126	-111.78	-125.518	64.2661	-108.625	-127.748	65.0782	-72.7783	-148.526	49.3303	-104.142	-123.008	49.1555	-88.4091	-133.281	60.4141	-60.5109	-153.889	32.2109	-93.0942	-128.551	39.515	-73.8172	-140.532	50.7344	-48.8622	-188.887	55.1483	-60.4509	-188.671	50.8877	-31.2852	-182.922	81.7793	-44.8816	
309	2.575	-142.414	94.1282	-42.8241	-120.474	86.6609	-65.8677	-110.945	81.2358	-94.3825	-119.679	60.7799	-113.971	-172.365	100.342	-105.642	-171.037	99.6209	-133.71	-169.41	99.5745	-158.535	-155.777	73.3573	-112.356	-125.574	67.4507	-110.628	-128.663	65.9896	-73.2444	-151.971	50.0565	-103.493	-123.815	53.4766	-89.1233	-137.096	60.9927	-57.1951	-152.048	38.5624	-94.4661	-128.989	41.8742	-76.7948	-143.315	55.2467	-50.2141	-190.899	52.8929	-61.8285	-187.722	52.9901	-28.6746	-183.453	84.036	-47.0183	
310	2.58333	-142.093	94.0526	-41.9223	-117.259	88.5856	-66.7843	-112.061	80.3349	-90.3126	-116.832	62.648	-111.464	-170.837	102.767	-105.976	-169.795	100.663	-132.548	-168.562	97.8858	-157.677	-154.866	73.2824	-112.161	-125.011	63.9311	-108.947	-128.61	68.5817	-71.138	-151.844	51.4949	-103.954	-123.333	52.2269	-90.0037	-136.105	58.1977	-56.8219	-152.149	37.7772	-94.9959	-129.727	42.1413	-75.1873	-142.961	55.35	-52.2986	-190.556	53.2144	-61.9392	-188.125	57.4438	-31.4333	-179.835	86.0343	-42.0492	
311	2.59167	-140.703	92.4469	-38.1009	-118.092	86.0662	-66.1887	-106.36	82.9222	-91.5914	-118.695	62.788	-109.5	-170.416	99.6702	-107.264	-167.481	102.489	-131.661	-165.764	103.996	-156.278	-154.597	76.3103	-111.481	-124.627	63.2275	-108.362	-129.123	69.9986	-70.6632	-151.053	54.3061	-104.23	-122.837	50.0246	-89.4913	-133.076	58.7709	-58.3594	-151.757	41.049	-95.7236	-129.281	44.5572	-78.4023	-143.788	53.6553	-51.0942	-188.78	55.2248	-62.4954	-186.571	57.8558	-28.4861	-179.889	89.9656	-46.6157	
312	2.6	-137.918	96.5819	-40.5339	-117.571	87.5079	-65.3438	-108.885	82.027	-89.9138	-118.528	62.6734	-110.732	-168.82	103.496	-106.341	-164.896	104.054	-134.192	-162.01	99.7269	-160.163	-155.074	72.9008	-111.082	-121.914	68.805	-106.593	-129.147	71.4481	-70.3383	-149.37	54.0054	-104.957	-122.931	53.4296	-91.1617	-133.543	63.1706	-59.9953	-150.826	40.454	-96.2598	-129.643	44.3556	-77.3444	-141.289	53.0642	-49.8852	-188.295	58.193	-63.6597	-187.134	55.8002	-29.3774	-177.497	87.8022	-42.343	
313	2.60833	-136.792	96.4292	-36.4888	-116.519	88.5149	-61.4921	-108.699	81.8149	-94.0319	-115.721	65.1523	-112.663	-167.855	103.48	-103.445	-165.705	101.258	-131.833	-155.977	97.8008	-159.087	-153.076	78.1164	-111.78	-123.499	63.9727	-108.061	-127.364	71.1699	-70.924	-147.948	55.361	-105.423	-123.094	49.4228	-88.6826	-133.969	62.3899	-58.6771	-154.58	40.8423	-94.0259	-128.037	43.9298	-78.3831	-141.852	55.0033	-51.3635	-188.599	62.5001	-64.1732	-189.257	57.6024	-29.0267	-177.922	90.0573	-43.6321	
314	2.61667	-138.998	96.6937	-37.0282	-116.801	89.1773	-64.8901	-106.624	85.33	-90.2088	-115.333	66.5327	-109.234	-169.315	102.19	-103.281	-164.947	100.287	-133.732	-147.686	94.8579	-158.238	-154.879	75.3815	-110.701	-123.866	67.6308	-110.016	-126.388	72.1219	-73.4955	-151.18	53.2254	-104.444	-123.254	55.1765	-92.7353	-131.493	63.1244	-60.8332	-151.555	43.3551	-95.7001	-128.15	41.9902	-80.0748	-139.302	53.9356	-49.325	-187.552	59.0439	-65.01	-187.694	56.4007	-29.1769	-179.212	87.1423	-45.6613	
315	2.625	-138.461	97.7633	-37.7804	-116.425	89.7695	-64.168	-108.214	84.717	-89.3592	-116.56	66.7247	-114.34	-170.381	103.346	-109.005	-163.265	102.572	-136.77	-141.074	93.5122	-154.772	-151.613	77.3168	-114.599	-121.69	69.6047	-109.053	-127.729	70.9685	-73.3389	-149.75	56.7778	-105.105	-122.707	54.7286	-89.5463	-133.794	61.5776	-59.7758	-151.612	43.3181	-95.3815	-127.847	46.2858	-77.5491	-143.239	56.9049	-49.8982	-186.962	63.3572	-62.3046	-188.261	57.1121	-31.1693	-180.027	88.5307	-44.2572	
316	2.63333	-139.24	96.7659	-39.4177	-118.959	90.0399	-66.5145	-107.227	87.7212	-94.708	-116.453	68.8808	-108.99	-169.976	103.99	-103.022	-164.473	99.0861	-134.002	-133.873	92.3371	-150.332	-153.816	79.5667	-113.065	-124.949	67.7537	-110.081	-129.701	73.2659	-72.396	-147.937	55.6054	-106.017	-122.638	54.11	-90.5352	-134.586	61.1712	-59.662	-149.241	40.9409	-96.9602	-128.436	44.4225	-76.6518	-140.676	57.9077	-52.0373	-187.793	63.4519	-61.1383	-188.728	61.3144	-29.5555	-179.75	93.549	-44.8075	
317	2.64167	-136.836	100.464	-39.192	-115.794	91.0845	-63.4433	-106.376	87.4234	-92.5082	-117.007	68.2046	-112.993	-170.878	102.434	-106.742	-162.438	99.0888	-133.908	-130.882	86.0039	-144.374	-156.716	77.0907	-111.919	-123.269	73.4875	-109.789	-127.77	71.4768	-75.0555	-148.816	56.4823	-105.408	-123.423	57.1516	-92.2979	-135.638	64.581	-60.0023	-153.418	42.9585	-95.8168	-128.548	46.3694	-76.8969	-142.418	59.9992	-48.9569	-190.036	63.2525	-60.8612	-187.04	61.8129	-29.911	-177.537	92.7774	-44.732	
318	2.65	-136.264	100.225	-38.5777	-115.169	91.1571	-62.7794	-107.092	85.9248	-92.9223	-118.104	68.4106	-109.034	-169.521	105.242	-107.012	-159.548	104.733	-134.448	-132.863	88.4713	-144.358	-151.239	81.6779	-114.685	-124.964	68.4426	-110.552	-127.938	74.2105	-73.9361	-152.469	61.8049	-104.232	-123.14	56.4759	-91.3146	-137.226	66.1051	-58.9343	-154.79	42.6973	-95.3372	-129.986	47.5356	-79.0345	-140.363	56.3262	-52.1794	-188.766	64.8277	-59.9768	-186.726	62.6503	-29.0362	-178.731	94.5266	-41.8907	
319	2.65833	-134.272	99.1726	-40.6725	-112.064	89.8774	-62.97	-104.511	84.0628	-93.1407	-117.738	66.9679	-108.572	-166.123	110.045	-106.577	-159.501	103.803	-132.726	-132.22	87.2883	-144.996	-151.888	78.1048	-115.328	-121.646	70.045	-108.386	-126.23	72.6752	-73.9243	-150.025	61.2663	-105.69	-125.115	54.8549	-93.0051	-134.857	63.1922	-59.9244	-155.686	47.1492	-95.3563	-130.979	41.6464	-79.0205	-141.072	56.5584	-49.9003	-187.331	67.6336	-65.3994	-187.057	66.2848	-30.0221	-177.969	94.4206	-43.4213	
320	2.66667	-136.039	95.4567	-36.773	-113.42	87.1126	-65.8897	-105.81	80.9633	-92.2234	-118.58	64.6208	-112.091	-163.91	106.103	-102.972	-156.313	107.413	-133.543	-130.768	93.616	-151.746	-152.5	78.436	-111.279	-120.794	68.5234	-108.146	-128.516	68.3528	-72.3371	-148.016	59.0134	-106.213	-123.308	51.4367	-89.2711	-137.346	63.1569	-57.344	-156.351	43.6025	-95.6715	-130.078	44.9498	-79.7609	-142.092	57.307	-48.5795	-190.076	66.5201	-64.946	-189.429	66.2294	-31.1204	-175.035	94.7358	-41.2886	
321	2.675	-136.083	95.4094	-40.7734	-108.886	86.6188	-62.1048	-102.647	80.3209	-88.4225	-113.326	63.6199	-111.604	-161.264	105.598	-108.375	-153.645	108.529	-131.95	-135.172	94.7604	-157.534	-147.767	79.8207	-113.673	-122.814	65.979	-110.008	-126.229	69.4663	-71.7808	-150.105	60.6694	-104.682	-122.782	53.4616	-89.0498	-134.714	63.2392	-58.8786	-157.351	45.9534	-93.731	-130.647	42.2798	-76.1726	-141.658	58.3928	-48.7759	-187.952	67.8947	-63.0901	-189.21	68.9828	-29.961	-176.211	95.5666	-43.2428	
322	2.68333	-132.681	95.4393	-35.8569	-109.782	85.4721	-64.5451	-99.9558	79.4199	-89.1802	-115.256	61.8183	-110.381	-157.958	106.514	-110.479	-152.441	106.355	-133.013	-140.289	97.0892	-157.334	-145.743	81.3705	-113.182	-121.602	63.234	-109.363	-124.503	71.9979	-70.2111	-149.038	57.0115	-104.44	-123.337	50.623	-89.4762	-133.163	62.3351	-61.0405	-153.155	45.8207	-94.6479	-131.476	40.7324	-73.946	-140.355	57.3441	-52.0404	-184.65	72.0806	-62.5297	-186.763	69.172	-32.2774	-172.897	95.9579	-48.4902	
323	2.69167	-129.807	98.0913	-39.5383	-108.954	85.6216	-61.7858	-102.838	77.7658	-86.4793	-112.993	62.7117	-107.997	-155.374	108.314	-108.881	-148.363	111.999	-131.779	-140.019	102.419	-161.37	-145.427	80.5189	-112.675	-118.147	65.8862	-107.917	-124.941	72.1111	-69.7819	-145.025	59.9662	-106.324	-123.743	48.3825	-88.538	-136.628	61.7471	-58.1985	-154.482	46.2744	-94.2515	-130.97	42.0037	-75.4671	-143.19	58.2885	-48.5192	-188.782	70.6609	-62.2126	-186.448	71.2003	-34.7626	-169.265	101.713	-47.068	
324	2.7	-129.904	98.0856	-39.7535	-110.985	85.1118	-62.2927	-102.088	78.6743	-90.5308	-112.367	63.7251	-108.156	-155.006	108.352	-107.412	-149.405	109.004	-134.035	-142.507	105.565	-159.64	-147.9	80.5125	-111.683	-121.038	62.436	-109.429	-124.878	66.823	-72.5077	-145.763	61.6122	-105.386	-123.622	51.2112	-90.2628	-137.607	63.1507	-58.3858	-157.568	48.0084	-94.4636	-132.68	41.0399	-74.3149	-142.609	60.6776	-51.3132	-189.076	72.8325	-64.6086	-188.134	71.9873	-32.8523	-172.165	100.262	-45.3679	
325	2.70833	-129.232	100.413	-39.8808	-106.707	88.1332	-64.373	-103.183	79.6361	-93.097	-114.951	63.8774	-109.227	-153.666	109.734	-106.994	-147.083	111.936	-133.964	-143.515	108.183	-158.554	-145.402	80.6728	-113.541	-121.401	63.3581	-108.039	-124.406	70.8106	-71.7879	-150.366	60.6158	-105.33	-124.44	49.7433	-86.3308	-136.185	64.3465	-59.513	-157.178	48.662	-95.3289	-132.316	44.5381	-74.5335	-144.383	61.1147	-50.5324	-187.168	76.9224	-65.873	-187.476	74.117	-35.9013	-168.368	103.465	-46.4679	
326	2.71667	-131.678	97.2137	-39.0664	-107.95	86.8266	-64.4295	-103.424	78.6209	-87.0753	-116.512	63.8635	-109.69	-153.321	112.797	-106.946	-146.987	115.093	-136.296	-141.868	112.974	-159.646	-146.777	83.5855	-111.981	-121.433	63.1831	-105.154	-123.165	70.4927	-72.0014	-149.631	64.4815	-105.786	-126.76	51.7118	-89.3024	-136.199	66.6985	-60.629	-154.682	49.587	-95.2979	-134.611	44.1655	-74.0249	-142.22	60.8807	-49.8483	-189.341	77.471	-66.6713	-189.758	78.2239	-35.1204	-170.678	103.541	-46.067	
327	2.725	-130.195	97.0327	-39.1481	-106.41	84.7412	-62.0086	-104.39	75.9636	-90.9627	-115.731	64.0026	-109.707	-151.678	115.377	-104.541	-146.573	115.126	-132.874	-143.208	115.069	-155.741	-144.581	85.6675	-113.279	-122.63	64.8101	-105.872	-126.943	70.0759	-71.1814	-149.442	63.4668	-105.809	-127.504	51.7402	-89.7816	-138.656	67.2327	-58.5998	-157.516	52.9535	-95.7776	-137.613	42.7066	-77.4354	-147.646	62.1767	-50.6362	-188.411	80.1389	-63.6163	-188.106	79.0933	-31.2731	-169.291	105.185	-45.4867	
